<?xml version="1.0" encoding="UTF-8"?>
<svg id="Layer_2" data-name="Layer 2" xmlns="http://www.w3.org/2000/svg" viewBox="0 0 86.57 82.71">
  <defs>
    <style>
      .cls-1 {
        fill: #1b75ba;
      }
    </style>
  </defs>
  <g id="Layer_1-2" data-name="Layer 1">
    <path class="cls-1" d="M85.46,46.59c-.96-2.79-2.35-5.46-4.14-7.97-3.27-4.46-7.53-7.77-12.28-9.84,2.63-4.42,4.15-9.61,4.15-15.11,0-3.11-.48-6.1-1.36-8.93-.48-1.51-1.08-3.03-1.83-4.42-1.55-.24-3.11-.32-4.7-.32-2.95.04-5.94.52-8.89,1.47-5.26,1.71-9.73,4.74-13.11,8.65-3.39-3.91-7.85-6.94-13.11-8.65-2.95-.96-5.94-1.43-8.89-1.47-1.59,0-3.15.08-4.7.32-.76,1.39-1.36,2.91-1.83,4.42-.88,2.83-1.36,5.82-1.36,8.93,0,5.5,1.52,10.68,4.15,15.11-4.74,2.07-9.01,5.38-12.28,9.84-1.79,2.51-3.19,5.18-4.15,7.97-.48,1.51-.88,3.07-1.12,4.62,1.12,1.12,2.31,2.15,3.63,3.03,2.39,1.75,5.1,3.15,8.05,4.11,5.26,1.71,10.68,1.87,15.7.72.48,5.14,2.27,10.24,5.54,14.71,1.83,2.51,3.95,4.66,6.34,6.42,1.28.96,2.63,1.79,4.03,2.51,1.39-.72,2.75-1.56,4.03-2.51,2.39-1.75,4.5-3.91,6.34-6.42,3.27-4.46,5.06-9.57,5.54-14.71,5.02,1.16,10.44,1,15.7-.72,2.95-.96,5.66-2.35,8.05-4.11,1.32-.88,2.51-1.91,3.63-3.03-.24-1.55-.64-3.11-1.12-4.62ZM57.64,5.26c3.23-1.04,6.5-1.43,9.69-1.2,1.24,2.95,1.87,6.22,1.87,9.61,0,5.06-1.47,9.77-3.99,13.75-4.7-1.32-9.73-1.47-14.55-.4-.48-4.9-2.19-9.61-4.9-13.67,2.99-3.67,7.06-6.54,11.88-8.09ZM55.24,53.61c-3.67-1.59-6.94-4.03-9.49-7.13.72-1.04,1.36-2.11,1.91-3.27,1.28-.16,2.51-.4,3.71-.8,2.15,3.39,3.47,7.25,3.87,11.2ZM43.29,39.58c-.56,0-1.12,0-1.67-.08-.24-.52-.44-1.04-.6-1.59-.2-.56-.36-1.08-.44-1.63.44-.36.88-.72,1.31-1.04.44-.32.92-.64,1.4-.92.48.28.96.6,1.39.92.44.32.88.68,1.32,1.04-.08.56-.24,1.08-.44,1.63-.16.56-.36,1.08-.6,1.59-.56.08-1.12.08-1.67.08ZM43.29,29.69c-1.16-.6-2.31-1.12-3.47-1.51.24-4.03,1.47-7.89,3.47-11.32,1.99,3.43,3.23,7.29,3.47,11.32-1.16.4-2.31.92-3.47,1.51ZM36.19,34.84c-.96.92-1.79,1.87-2.59,2.87-3.71-1.51-7.02-3.87-9.61-6.82,3.87-.84,7.89-.8,11.8.2.04,1.24.16,2.51.4,3.75ZM38.9,43.21c.56,1.16,1.2,2.23,1.91,3.27-2.55,3.11-5.82,5.54-9.49,7.13.4-3.95,1.71-7.81,3.87-11.2,1.2.4,2.43.64,3.71.8ZM50.38,34.84c.24-1.24.36-2.51.4-3.75,3.91-1,7.93-1.04,11.8-.2-2.59,2.95-5.9,5.3-9.61,6.82-.8-1-1.63-1.95-2.59-2.87ZM17.38,13.67c0-3.39.64-6.66,1.87-9.61,3.19-.24,6.46.16,9.69,1.2,4.82,1.55,8.89,4.42,11.88,8.09-2.71,4.07-4.42,8.77-4.9,13.67-4.82-1.08-9.84-.92-14.55.4-2.51-3.99-3.99-8.69-3.99-13.75ZM12.92,54.57c-3.23-1.04-6.1-2.67-8.57-4.74.8-3.11,2.15-6.1,4.15-8.85,2.99-4.11,6.98-7.09,11.36-8.81,2.99,3.83,6.94,6.9,11.48,8.89-2.51,4.26-3.91,9.09-4.07,13.99-4.58,1.16-9.53,1.08-14.35-.48ZM50.42,71.43c-1.99,2.75-4.42,4.98-7.13,6.7-2.71-1.71-5.14-3.95-7.13-6.7-2.99-4.11-4.58-8.81-4.86-13.51,4.58-1.67,8.73-4.5,12-8.21,3.27,3.71,7.41,6.54,12,8.21-.28,4.7-1.87,9.41-4.86,13.51ZM73.66,54.57c-4.82,1.55-9.77,1.63-14.35.48-.16-4.9-1.55-9.73-4.07-13.99,4.54-1.99,8.49-5.06,11.48-8.89,4.38,1.71,8.37,4.7,11.36,8.81,1.99,2.75,3.35,5.74,4.15,8.85-2.47,2.07-5.34,3.71-8.57,4.74Z"/>
  </g>
</svg>